<!DOCTYPE svg PUBLIC "-//W3C//DTD SVG 1.1//EN" "http://www.w3.org/Graphics/SVG/1.1/DTD/svg11.dtd">
<!-- Uploaded to: SVG Repo, www.svgrepo.com, Transformed by: SVG Repo Mixer Tools -->
<svg width="97px" height="97px" viewBox="-2.4 -2.4 28.80 28.80" xmlns="http://www.w3.org/2000/svg" mirror-in-rtl="true" fill="#000000" stroke="#000000" stroke-width="0.00024000000000000003">
<g id="SVGRepo_bgCarrier" stroke-width="0"/>
<g id="SVGRepo_tracerCarrier" stroke-linecap="round" stroke-linejoin="round" stroke="#CCCCCC" stroke-width="0.144"/>
<g id="SVGRepo_iconCarrier"> <g fill="#494c4e" fill-rule="evenodd"> <path d="M20.43 0H3.57A3.572 3.572 0 0 0 0 3.57v8.86A3.572 3.572 0 0 0 3.57 16H5v3c0 .85.538 1.608 1.34 1.89a2.006 2.006 0 0 0 2.22-.64l3.4-4.25h8.47A3.572 3.572 0 0 0 24 12.43V3.57A3.572 3.572 0 0 0 20.43 0zM22 12.43A1.579 1.579 0 0 1 20.43 14H11l-4 5v-5H3.57A1.579 1.579 0 0 1 2 12.43V3.57A1.579 1.579 0 0 1 3.57 2h16.86A1.579 1.579 0 0 1 22 3.57v8.86z"/> <circle cx="6" cy="8" r="2"/> <circle cx="12" cy="8" r="2"/> <circle cx="18" cy="8" r="2"/> </g> </g>
</svg>